<svg
          width="90"
          height="37"
          viewBox="0 0 90 37"
          fill="none"
          xmlns="http://www.w3.org/2000/svg">
          <path
            d="M63.4658 0.15958C63.3885 0.250645 62.6782 1.02821 61.8836 1.88982C60.0552 3.87926 44.9641 20.5863 44.8304 20.7684C44.8234 20.7824 44.4226 20.3411 43.9444 19.7947C41.469 16.9647 30.9066 5.02108 28.9728 2.86353C27.7562 1.50455 26.7084 0.327698 26.6381 0.257648C26.4834 0.0825233 26.399 0.0895271 25.97 0.334705C25.5692 0.565872 25.3723 0.783028 25.4356 0.944145C25.4707 1.04221 25.3934 1.04922 24.8519 1.00719C23.1782 0.888103 22.039 0.8811 21.3428 0.993179C19.4511 1.28039 17.89 2.02292 16.6101 3.23479C15.5342 4.26454 14.8521 5.36433 12.8971 9.24512C11.3992 12.2293 10.6468 13.5672 9.90841 14.562C8.80435 16.04 7.37681 17.1118 5.97036 17.5251C4.81708 17.8543 2.81289 17.9524 1.37128 17.7422C0.597739 17.6302 0 17.6091 0 17.6862C0 17.7843 4.15605 22.5687 12.0181 31.5422L15.7663 35.8153L16.7226 36.0114C17.5032 36.1725 17.89 36.2146 18.7409 36.2216C19.8942 36.2286 20.2809 36.1585 22.1867 35.5911C23.2767 35.2689 23.6916 35.0587 24.4511 34.4283C26.0614 33.0903 26.7084 32.1096 28.9095 27.6894C30.8363 23.8156 31.6802 22.4847 33.0093 21.2378C34.4931 19.8368 36.1316 19.2483 38.5436 19.2483C39.5211 19.2483 40.4634 19.3464 41.4339 19.5495C41.8277 19.6336 41.8347 19.6406 42.6856 20.6143C43.1568 21.1537 43.6068 21.6651 43.6842 21.7421L43.8178 21.8892L40.7447 25.3147C34.7955 31.9345 31.3637 35.7943 31.3637 35.8713C31.3637 35.9344 32.3904 36.5508 32.4959 36.5508C32.6717 36.5508 32.4959 36.7399 42.7489 25.3217C43.8811 24.0538 44.8164 23.0311 44.8234 23.0451C44.8515 23.0801 53.5223 32.9432 55.3718 35.0447C56.2508 36.0464 57.0525 36.9081 57.1509 36.9571C57.3056 37.0411 57.3619 37.0201 57.8471 36.7259C58.1354 36.5438 58.3675 36.3687 58.3675 36.3336C58.3675 36.2356 55.4069 32.8241 48.6771 25.1746C47.123 23.4093 45.8501 21.9383 45.8501 21.9102C45.8501 21.8612 47.5308 19.9488 47.9879 19.4725C48.3255 19.1222 51.2509 18.842 52.6151 19.0312C56.1101 19.5215 57.9315 21.2448 60.449 26.4285C62.629 30.9398 63.065 31.7383 63.937 32.8451C64.6262 33.7278 65.7373 34.7155 66.4194 35.0587C67.0171 35.3599 69.183 35.9904 70.1324 36.1375C70.8567 36.2496 71.9537 36.1865 73.1281 35.9624C73.6415 35.8643 74.0704 35.7802 74.0845 35.7662C74.0915 35.7522 75.8004 33.8398 77.8889 31.5072C86.0885 22.3446 89.9422 18.0014 89.9984 17.8403C90.0336 17.7493 89.471 17.7633 88.5006 17.8823C86.637 18.1065 84.8649 17.9454 83.578 17.434C82.6216 17.0487 81.8622 16.5164 81.0113 15.6337C79.9424 14.5199 79.1969 13.3221 77.7624 10.422C77.2209 9.32218 76.5458 7.94919 76.2575 7.37478C75.6668 6.17691 74.9002 4.85997 74.401 4.18748C73.965 3.60606 73.0156 2.6814 72.4601 2.31013C70.709 1.14029 68.6205 0.635921 66.2787 0.832062C64.7598 0.96516 64.7316 0.958153 64.7246 0.776024C64.7105 0.558865 64.584 0.42577 64.1691 0.187599C63.7471 -0.057579 63.6487 -0.057579 63.4658 0.15958ZM69.7175 1.30841C70.1324 1.38546 70.5051 1.46952 70.5403 1.50455C70.6176 1.5816 70.3574 1.95988 69.7386 2.6814C69.2815 3.21378 67.5586 5.16819 67.5516 5.16819C67.5445 5.16819 67.2914 5.08413 66.982 4.99306C65.7513 4.60078 63.7612 4.44667 62.5235 4.6358C61.6515 4.7689 61.6023 4.7689 61.6023 4.67083C61.6023 4.56575 62.6431 3.37489 63.5643 2.42221C64.3589 1.59561 64.8231 1.3014 65.5404 1.18232C66.1803 1.07024 68.8314 1.14729 69.7175 1.30841ZM24.648 1.31541C25.2105 1.42749 25.6817 1.67267 26.1458 2.11399C26.5607 2.49926 28.5508 4.7689 28.5508 4.85296C28.5508 4.902 28.4454 4.89499 27.1866 4.74088C26.1599 4.62179 24.5143 4.73388 23.5087 5.00007C23.129 5.10514 22.7563 5.20321 22.6789 5.21722C22.5594 5.24524 22.3062 4.98606 21.4131 3.9423C20.0208 2.32414 19.5215 1.66566 19.6058 1.5816C19.6832 1.50455 20.6255 1.33643 21.5186 1.25237C22.3273 1.1683 24.0643 1.21033 24.648 1.31541ZM75.2378 6.11387C75.7793 7.05955 76.4755 8.43254 76.7216 9.02797C76.9115 9.50431 76.8904 9.65141 76.5317 10.1278C76.0746 10.7232 74.0423 12.9438 73.9439 12.9438C73.8946 12.9438 73.4516 12.1592 72.9594 11.1925C72.0874 9.48329 71.4756 8.43254 71.3841 8.47457C71.3138 8.50259 70.3152 9.58837 69.2463 10.7862C68.74 11.3606 68.29 11.823 68.2407 11.823C68.1915 11.823 67.8329 11.4587 67.4391 11.0174C66.7147 10.2048 66.0537 9.65141 65.1255 9.08401C64.8512 8.91589 64.6262 8.74076 64.6262 8.69873C64.6262 8.59365 64.9848 8.1033 65.463 7.5499C66.3209 6.56219 67.6008 5.23824 67.6992 5.23824C68.2196 5.23824 69.9988 6.65326 71.1099 7.9562L71.4263 8.32746L72.5234 7.10859C73.1211 6.44311 73.8314 5.69357 74.0915 5.45539C74.6471 4.93702 74.5275 4.86697 75.2378 6.11387ZM16.3499 5.81966C16.7367 6.21894 17.4118 6.95447 17.8548 7.46584L18.6635 8.39051L19.0081 7.98422C19.852 7.01752 21.0967 5.94575 21.8351 5.55346C22.4398 5.23824 22.4469 5.23824 23.6002 6.51316C25.0066 8.06828 25.6606 8.95091 25.4004 8.95091C25.2738 8.95091 23.8392 9.93162 23.4525 10.2819C23.2274 10.485 22.7914 10.9263 22.482 11.2696C22.1726 11.6128 21.8632 11.893 21.8069 11.886C21.7436 11.886 21.5538 11.7179 21.378 11.5148C20.2809 10.2468 18.7339 8.53061 18.6917 8.53061C18.5791 8.53061 17.9814 9.53934 17.1657 11.1085C16.2866 12.7967 16.1671 13.0138 16.0968 13.0138C16.0335 13.0138 14.2684 11.0384 13.7058 10.3379C13.1643 9.66543 13.1432 9.52532 13.4597 8.83183C14.0785 7.46584 15.4146 5.09814 15.5623 5.09814C15.6115 5.09814 15.9632 5.42037 16.3499 5.81966ZM62.1297 8.18036C63.0439 8.27142 63.8948 8.45355 64.0847 8.60066C64.2253 8.71974 64.2253 8.72675 64.1058 8.91589C63.9581 9.14705 62.1719 11.1715 61.6164 11.7529L61.2155 12.1662L60.1959 11.9631C58.8808 11.6969 57.7135 11.6338 56.3281 11.7529C55.7445 11.802 55.2522 11.83 55.2311 11.809C55.1819 11.7599 55.6812 11.1715 57.1157 9.57436L58.2198 8.34147L58.9793 8.25741C59.3942 8.20838 59.8021 8.15934 59.8794 8.15234C60.2099 8.1033 61.4828 8.11731 62.1297 8.18036ZM31.3426 8.46056L31.856 8.54462L33.0022 9.85456C34.2821 11.3116 34.9009 12.0401 34.8658 12.0682C34.8517 12.0822 34.4509 12.0471 33.9657 11.9911C32.3482 11.823 31.195 11.872 29.5705 12.1802L28.797 12.3273L28.4594 11.9631C27.6859 11.1225 26.0052 9.14005 25.9349 8.97893C25.8645 8.83883 25.8716 8.78979 25.9559 8.73376C26.1036 8.63568 26.5537 8.5236 27.1796 8.41853C27.8687 8.30645 30.5902 8.33447 31.3426 8.46056ZM68.6205 12.7056C68.8244 13.0068 69.3307 13.9385 69.7597 14.7651C70.1816 15.5917 70.5754 16.3342 70.6317 16.4113C70.7231 16.5444 70.7653 16.5164 71.4263 15.8159C71.8131 15.4096 72.4882 14.688 72.9312 14.2117C73.3743 13.7284 73.7751 13.3291 73.8173 13.3151C73.8595 13.301 74.2884 14.0576 74.7807 15.0313C75.6457 16.7335 76.2504 17.7773 76.37 17.7773C76.4051 17.7773 77.1013 17.0347 77.9241 16.1311C78.7469 15.2274 79.4431 14.4849 79.4712 14.4849C79.4923 14.4849 79.7665 14.7721 80.0689 15.1224C80.9128 16.0961 81.5598 16.6635 82.4318 17.1818C82.8678 17.441 83.2405 17.6652 83.2545 17.6792C83.2686 17.6862 82.8678 18.1485 82.3685 18.7019C80.8636 20.3691 80.308 21.0276 80.308 21.1537C80.308 21.2658 80.7722 21.4129 81.6231 21.567C82.5583 21.7351 83.8874 21.7772 85.2868 21.6721C85.8987 21.63 86.1448 21.63 86.1448 21.6861C86.1448 21.8332 85.4205 22.6458 84.2179 23.8506C83.2475 24.8173 82.9592 25.0695 82.7341 25.1256C81.8762 25.3637 79.9494 25.3777 78.4586 25.1676C77.7835 25.0695 77.1435 24.8524 77.1435 24.7263C77.1435 24.6072 77.5795 24.0538 78.6133 22.8559C79.8298 21.4479 79.9564 21.2938 79.9564 21.1677C79.9564 21.1117 79.7876 20.9856 79.5907 20.8875C78.8524 20.5162 77.7905 19.6126 76.82 18.5268C76.5809 18.2676 76.3419 18.0575 76.2926 18.0575C76.2364 18.0575 75.8566 18.4287 75.4558 18.8771C74.183 20.2991 73.1984 21.3498 73.1281 21.3498C73.0156 21.3498 72.664 20.7264 71.7357 18.8981C71.2365 17.9174 70.7794 17.0487 70.7161 16.9717C70.5895 16.8106 70.7372 16.6705 68.7541 18.814C68.1071 19.5145 67.5445 20.0889 67.5164 20.0889C67.4812 20.0889 67.0242 19.2483 66.5038 18.2116C65.5263 16.3062 65.0762 15.5146 64.9778 15.5497C64.9496 15.5637 64.4082 16.1521 63.7823 16.8666C63.1494 17.5811 62.4673 18.3517 62.2563 18.5758L61.8695 18.9891L61.0116 18.0855C60.0552 17.0838 59.2957 16.4673 58.698 16.2011C58.1073 15.9419 58.1354 15.8159 58.9582 14.8422C59.7739 13.8755 61.1804 12.3484 61.2718 12.3273C61.3913 12.3063 62.4532 12.9438 63.072 13.4131C63.3533 13.6303 63.9018 14.1697 64.2886 14.604L64.9989 15.4026L65.1747 15.2414C65.2661 15.1504 65.9623 14.4078 66.7147 13.5883C67.4672 12.7687 68.1212 12.1102 68.1704 12.1242C68.2126 12.1312 68.4165 12.3974 68.6205 12.7056ZM23.4103 13.7984C24.1979 14.681 24.8871 15.4236 24.9503 15.4446C25.0207 15.4726 25.1824 15.3395 25.4426 15.0383C26.3498 13.9945 27.1655 13.3221 28.2555 12.7196L28.7759 12.4394L29.1345 12.8457C31.209 15.1644 31.7505 15.8369 31.7013 16.075C31.6872 16.1521 31.5114 16.2782 31.2582 16.3973C30.6464 16.6915 29.8026 17.378 28.9095 18.3097L28.1289 19.1362L27.9109 18.9261C27.7914 18.814 27.0881 18.0224 26.3498 17.1678L25.0066 15.6127L24.7675 15.97C24.6339 16.1661 24.0713 17.1818 23.5228 18.2256C22.9391 19.3464 22.4891 20.124 22.4258 20.124C22.3765 20.124 21.6874 19.4165 20.9068 18.5478C20.1262 17.6792 19.4511 16.9647 19.416 16.9507C19.3175 16.9156 19.0925 17.2939 18.2979 18.8631C17.5102 20.4042 16.9406 21.3849 16.8352 21.3849C16.7648 21.3849 16.0827 20.6493 14.6059 18.9821C14.184 18.5058 13.7972 18.0995 13.741 18.0785C13.6847 18.0575 13.2768 18.4147 12.6791 19.0172C11.7509 19.9488 10.8367 20.6774 10.3092 20.8945C9.84512 21.0907 9.81699 21.0346 11.1601 22.6178C12.4119 24.1028 12.8057 24.6212 12.7565 24.7403C12.5596 25.2587 8.23474 25.4688 7.10255 25.0205C6.79313 24.8944 4.99288 23.1081 4.22637 22.1554C3.8396 21.6721 3.7974 21.595 3.90992 21.56C3.98727 21.532 4.50063 21.553 5.0632 21.609C6.25868 21.7211 7.419 21.6791 8.52306 21.4829C9.34583 21.3358 9.63415 21.2378 9.63415 21.0977C9.63415 20.9786 9.02235 20.222 7.77764 18.807C7.20803 18.1555 6.75094 17.6162 6.765 17.6021C6.77203 17.5951 7.13771 17.378 7.56668 17.1258C8.61448 16.5094 8.90983 16.2642 9.76776 15.2975C10.1756 14.8492 10.5413 14.4919 10.5835 14.4989C10.6257 14.5129 11.3219 15.2555 12.1236 16.1451C12.9252 17.0417 13.6003 17.7773 13.6285 17.7773C13.7621 17.7773 14.3598 16.7685 15.3092 14.9332C15.6889 14.1977 16.0475 13.5252 16.1108 13.4341C16.2163 13.273 16.2233 13.28 17.5384 14.7371C18.2627 15.5427 18.9659 16.2852 19.0925 16.3973L19.3246 16.5864L19.5004 16.2922C19.5918 16.1241 19.8871 15.5637 20.1473 15.0453C20.8927 13.5602 21.7577 12.1592 21.9265 12.1802C21.9546 12.1802 22.6227 12.9088 23.4103 13.7984ZM56.6446 15.4656C57.3478 15.6197 57.9034 15.8439 57.8612 15.949C57.8471 15.984 57.2072 16.7125 56.4336 17.5741C55.6601 18.4287 54.992 19.1783 54.9569 19.2273C54.9006 19.3044 54.7599 19.2834 54.1833 19.1082C53.0019 18.744 52.3338 18.6669 50.7727 18.7159C50.0202 18.737 49.2959 18.779 49.1764 18.8C49.0498 18.821 48.9443 18.814 48.9443 18.779C48.9443 18.6879 50.2382 17.2029 51.0891 16.3132C51.5603 15.8299 51.9189 15.5146 52.0596 15.4726C52.5378 15.3115 53.1707 15.2625 54.5349 15.2835C55.6882 15.3045 56.0679 15.3325 56.6446 15.4656ZM36.7434 15.5357C38.0233 15.6547 38.0162 15.6547 38.846 16.5444C39.7532 17.5111 40.9979 18.9681 40.9979 19.0592C40.9979 19.1012 40.8572 19.1082 40.6322 19.0732C39.7954 18.9611 38.628 18.9191 37.8896 18.9751C36.9473 19.0382 36.5324 19.1152 35.6956 19.3674L35.0767 19.5566L34.9572 19.4094C34.8939 19.3254 34.2469 18.5758 33.5086 17.7422C32.7772 16.9086 32.1654 16.2011 32.1513 16.1661C32.1162 16.068 32.4256 15.8999 32.8757 15.7808C33.9305 15.5006 35.3862 15.4096 36.7434 15.5357ZM62.2985 19.9138C62.4743 20.18 63.0017 21.1537 63.4729 22.0714L64.3238 23.7456L65.02 22.982C65.3997 22.5687 66.11 21.7912 66.5882 21.2588C67.0663 20.7264 67.4672 20.3061 67.4812 20.3201C67.4953 20.3341 67.9313 21.1887 68.4517 22.2255C69.5558 24.4251 69.9355 25.0625 70.0691 24.9154C70.1183 24.8594 70.5965 24.313 71.138 23.6965C71.6725 23.0801 72.3265 22.3586 72.5796 22.0854C73.0297 21.623 73.0578 21.602 73.2195 21.6931C73.318 21.7421 73.5993 22.0223 73.8384 22.3095C74.5416 23.1361 75.5683 23.9978 76.4614 24.4951C76.6794 24.6212 76.8622 24.7403 76.8622 24.7613C76.8622 24.8173 76.3981 25.3497 75.2237 26.6737C74.6893 27.2691 74.1548 27.8785 74.0353 28.0186L73.8243 28.2848L74.0283 28.3619C74.4713 28.53 75.6035 28.7752 76.2293 28.8312C76.8622 28.8873 77.9874 28.8522 79.3235 28.7402L79.9213 28.6841L79.7736 28.8522C79.0352 29.6999 76.8482 32.1376 76.799 32.1656C76.7638 32.1867 76.3067 32.2497 75.7722 32.3127C74.5416 32.4458 73.0508 32.4458 72.2491 32.3127C71.5599 32.1937 70.702 31.9555 70.6458 31.8714C70.6247 31.8364 71.2013 31.1499 71.9186 30.3443C72.6359 29.5387 73.311 28.7682 73.4235 28.6281L73.6204 28.3759L73.4657 28.2358C73.3813 28.1587 72.9804 27.8856 72.5796 27.6194C71.8412 27.136 71.2154 26.5686 70.3856 25.6299L69.9355 25.1116L68.4376 26.7297C67.6078 27.6194 66.8976 28.3619 66.8413 28.3759C66.6163 28.467 66.2154 27.8085 65.1114 25.5669L64.2816 23.8647L63.5221 24.6913C61.546 26.8278 61.307 27.066 61.1804 26.9889C61.1382 26.9609 60.8217 26.3795 60.4771 25.7C60.1326 25.0135 59.6122 24.0328 59.3168 23.5284C59.0285 23.017 58.7824 22.5757 58.7683 22.5477C58.7613 22.5197 59.4153 21.7491 60.224 20.8315C61.9047 18.9261 61.7078 19.0172 62.2985 19.9138ZM29.7744 21.0626L31.202 22.7018L30.6113 23.6895C30.2878 24.2359 29.7815 25.1466 29.4861 25.728C29.1978 26.3024 28.8954 26.8838 28.8181 27.0099L28.6774 27.2341L28.4805 27.08C28.375 26.9889 27.925 26.5266 27.496 26.0432C27.06 25.5599 26.4623 24.9084 26.1739 24.5862L25.6465 23.9978L24.6831 25.8891C23.7549 27.7174 23.2837 28.495 23.1079 28.495C23.0094 28.495 22.5313 28.0046 21.5538 26.9189C21.174 26.4915 20.6607 25.9311 20.4075 25.672L19.9434 25.1956L19.5918 25.6019C18.8112 26.5126 18.0939 27.15 17.1797 27.7525L16.2444 28.3689L16.3781 28.558C16.4484 28.6561 17.1164 29.4337 17.8548 30.2813C18.5932 31.1289 19.198 31.8574 19.198 31.8994C19.198 32.0536 17.7071 32.3898 16.7226 32.4598C16.0827 32.5019 14.831 32.4248 13.6425 32.2637L13.0448 32.1867L12.5525 31.6262C11.3711 30.2883 9.99279 28.6771 10.0069 28.6561C10.0209 28.6491 10.4851 28.6911 11.0406 28.7472C12.215 28.8733 14.1207 28.8382 14.8028 28.6841C15.4709 28.53 16.0335 28.3549 16.0335 28.3059C16.0335 28.2498 15.6889 27.8295 14.5215 26.4986C13.5019 25.3357 13.0799 24.8243 13.0799 24.7613C13.0799 24.7403 13.2628 24.6212 13.4878 24.4951C14.2543 24.0608 15.1123 23.3673 15.9421 22.5057C16.4062 22.0223 16.8141 21.63 16.8562 21.63C16.9266 21.63 18.0939 22.919 19.3668 24.411C19.6691 24.7683 19.9293 25.0625 19.9434 25.0625C20.0208 25.0625 20.8787 23.5284 21.596 22.1134C22.0601 21.1887 22.468 20.4392 22.5031 20.4532C22.5383 20.4672 23.2345 21.2238 24.0502 22.1344C24.866 23.0521 25.5551 23.8016 25.5973 23.8016C25.6325 23.8016 25.963 23.1992 26.3357 22.4636C27.3413 20.4812 28.0375 19.3604 28.2485 19.4024C28.3047 19.4165 28.9939 20.159 29.7744 21.0626ZM67.3336 29.3076C68.1704 30.3023 69.2463 31.213 70.0269 31.5702C70.2449 31.6753 70.3926 31.7874 70.3926 31.8574C70.3926 31.9695 68.7963 33.8819 68.1212 34.5684C67.6992 35.0027 67.3687 35.1778 67.0874 35.1148C66.5741 35.0027 65.3435 33.994 64.3308 32.8521L63.6276 32.0676L63.8596 31.8014C64.6332 30.9187 66.7077 28.6351 66.7358 28.6351C66.7569 28.6351 67.0242 28.9363 67.3336 29.3076ZM25.9911 32.4528C25.4848 33.0973 24.1276 34.3652 23.5017 34.7855C22.5945 35.388 22.3695 35.3669 21.6874 34.6454C21.2373 34.1691 19.5777 32.1867 19.4863 32.0115C19.3949 31.8434 19.4511 31.7944 19.9364 31.5842C20.6115 31.29 21.6663 30.4074 22.5453 29.3986L23.1431 28.7051L24.6761 30.4424L26.2091 32.1726L25.9911 32.4528Z"
            fill="#DB3138"
          />
        </svg>