<svg width="18" height="22" viewBox="0 0 18 22" fill="none" xmlns="http://www.w3.org/2000/svg">
<path d="M9.00001 0.876709C6.81276 0.879289 4.71584 1.74931 3.16923 3.29593C1.62261 4.84254 0.752589 6.93947 0.750009 9.12671C0.747389 10.9141 1.33124 12.653 2.41201 14.0767C2.41201 14.0767 2.63701 14.373 2.67376 14.4157L9.00001 21.8767L15.3293 14.412C15.3623 14.3722 15.588 14.0767 15.588 14.0767L15.5888 14.0745C16.669 12.6514 17.2526 10.9133 17.25 9.12671C17.2474 6.93947 16.3774 4.84254 14.8308 3.29593C13.2842 1.74931 11.1873 0.879289 9.00001 0.876709ZM9.00001 12.1267C8.40666 12.1267 7.82665 11.9508 7.3333 11.6211C6.83995 11.2915 6.45543 10.8229 6.22837 10.2748C6.00131 9.72658 5.9419 9.12338 6.05765 8.54144C6.17341 7.9595 6.45913 7.42495 6.87869 7.00539C7.29825 6.58583 7.83279 6.30011 8.41474 6.18435C8.99668 6.0686 9.59988 6.12801 10.1481 6.35507C10.6962 6.58213 11.1648 6.96665 11.4944 7.46C11.8241 7.95335 12 8.53337 12 9.12671C11.999 9.92205 11.6826 10.6845 11.1202 11.2469C10.5578 11.8093 9.79535 12.1257 9.00001 12.1267Z" fill="white"/>
</svg>
