<svg width="20" height="17" viewBox="0 0 20 17" fill="none" xmlns="http://www.w3.org/2000/svg">
<path d="M0.571533 5.32388L9.70353 10.0733C9.79513 10.1209 9.89686 10.1458 10.0001 10.1458C10.1033 10.1458 10.2051 10.1209 10.2967 10.0733L19.4287 5.32474V13.5747C19.4287 14.2863 19.1565 14.9709 18.6678 15.4881C18.1791 16.0053 17.5111 16.3159 16.8007 16.3562L16.643 16.3605H3.35725C2.6457 16.3605 1.96111 16.0883 1.44391 15.5996C0.926705 15.1109 0.616104 14.4429 0.575819 13.7325L0.571533 13.5747V5.32388ZM3.35725 0.931885H16.643C17.3545 0.931838 18.0391 1.20407 18.5563 1.69275C19.0735 2.18142 19.3841 2.84948 19.4244 3.55989L19.4287 3.7176V3.87531L10.0001 8.77817L0.571533 3.87531V3.7176C0.571487 3.00605 0.843722 2.32146 1.33239 1.80426C1.82107 1.28706 2.48913 0.976455 3.19953 0.936171L3.35725 0.931885H16.643H3.35725Z" fill="white"/>
</svg>
