<svg width="16" height="17" viewBox="0 0 16 17" fill="none" xmlns="http://www.w3.org/2000/svg">
<path d="M14.997 16.6462C6.46601 16.6582 -0.00899063 10.1062 9.3707e-06 1.64924C9.3707e-06 1.09624 0.448009 0.64624 1.00001 0.64624H3.64001C4.13501 0.64624 4.55601 1.01024 4.62901 1.50024C4.80311 2.67529 5.14493 3.81929 5.64401 4.89724L5.74701 5.11924C5.8162 5.26863 5.83108 5.43748 5.78909 5.59667C5.7471 5.75586 5.65088 5.89541 5.51701 5.99124C4.69901 6.57524 4.38701 7.75024 5.02401 8.66624C5.82599 9.81957 6.82695 10.8209 7.98001 11.6232C8.89701 12.2592 10.072 11.9472 10.655 11.1302C10.7507 10.996 10.8904 10.8994 11.0498 10.8572C11.2092 10.815 11.3784 10.8299 11.528 10.8992L11.749 11.0012C12.827 11.5012 13.971 11.8432 15.146 12.0172C15.636 12.0902 16 12.5112 16 13.0072V15.6462C16 15.7776 15.9741 15.9078 15.9238 16.0292C15.8735 16.1505 15.7997 16.2608 15.7068 16.3537C15.6138 16.4466 15.5034 16.5202 15.382 16.5704C15.2606 16.6206 15.1304 16.6464 14.999 16.6462H14.997Z" fill="white"/>
</svg>
