<svg width="40" height="45" viewBox="0 0 40 47" fill="none" xmlns="http://www.w3.org/2000/svg">
<rect x="0.5" y="1.05273" width="39" height="44.6968" stroke="#898989"/>
<path d="M29.9687 17.5577C30.1387 18.0827 29.6164 19.3076 28.4018 21.2326C28.2317 21.4951 28.0131 21.845 27.7459 22.2825C27.1872 23.0992 26.8713 23.6387 26.7985 23.9012C26.677 24.2512 26.7256 24.5866 26.9442 24.9074C27.0657 25.0824 27.3451 25.4324 27.7823 25.9574H27.8188V26.0011C28.8148 27.0803 29.4828 27.999 29.8229 28.7573L29.8958 28.9323L29.9687 29.2604V29.676L29.7136 30.0041L29.0941 30.1572L26.4341 30.2447C26.264 30.2739 26.0636 30.2447 25.8328 30.1572C25.602 30.0697 25.4259 29.9822 25.3045 29.8947L25.0858 29.7197C24.8672 29.5448 24.6243 29.2823 24.357 28.9323C24.0898 28.5823 23.853 28.2615 23.6465 27.9698C23.44 27.6782 23.2274 27.4375 23.0088 27.248C22.7902 27.0584 22.5958 26.9928 22.4258 27.0511C22.4015 27.0511 22.3711 27.0657 22.3347 27.0948C22.2982 27.124 22.2375 27.1896 22.1525 27.2917C22.0674 27.3938 21.9946 27.5177 21.9338 27.6636C21.8731 27.8094 21.8184 28.0209 21.7699 28.2979C21.7213 28.575 21.697 28.9031 21.697 29.2823C21.697 29.3989 21.6848 29.5083 21.6605 29.6104C21.6362 29.7125 21.612 29.7927 21.5877 29.851L21.5512 29.8947C21.4055 30.0697 21.2111 30.1572 20.9682 30.1572H19.8021C19.292 30.2156 18.7758 30.1572 18.2535 29.9822C17.7312 29.8072 17.2757 29.5812 16.887 29.3041C16.4983 29.0271 16.1461 28.75 15.8303 28.4729C15.5145 28.1958 15.2715 27.9552 15.1015 27.7511L14.8464 27.4448C14.7735 27.3865 14.6764 27.2698 14.5549 27.0948C14.4334 26.9199 14.1844 26.5407 13.8079 25.9574C13.4314 25.3741 13.0609 24.747 12.6965 24.0762C12.3321 23.4054 11.907 22.5231 11.4211 21.4294C10.9353 20.3357 10.4859 19.2056 10.0729 18.0389C10.0243 17.8931 10 17.7764 10 17.6889C10 17.6015 10.0121 17.5285 10.0364 17.4702L10.0729 17.4265C10.17 17.2515 10.3644 17.164 10.6559 17.164H13.5346C13.6075 17.164 13.6804 17.1858 13.7532 17.2296L13.9354 17.339L13.9719 17.3827C14.0933 17.4702 14.1784 17.6015 14.2269 17.7764C14.3727 18.1848 14.5367 18.615 14.7189 19.067C14.9011 19.5191 15.0408 19.8618 15.1379 20.0951L15.2837 20.4451C15.5023 20.9409 15.7027 21.3711 15.8849 21.7357C16.0671 22.1002 16.2311 22.3846 16.3769 22.5888C16.5226 22.7929 16.6684 22.9533 16.8141 23.07C16.9599 23.1867 17.0813 23.245 17.1785 23.245C17.2757 23.245 17.3729 23.2304 17.47 23.2012L17.5065 23.1356L17.634 22.8513L17.7798 22.2825L17.8709 21.2763V19.7014C17.8466 19.3806 17.8101 19.0816 17.7615 18.8045C17.713 18.5275 17.6644 18.3306 17.6158 18.2139L17.5794 18.0827C17.4093 17.791 17.1056 17.6015 16.6684 17.514C16.5955 17.514 16.6198 17.4119 16.7413 17.2077C16.8627 17.0619 16.9963 16.9452 17.1421 16.8577C17.5065 16.6244 18.3324 16.5223 19.6199 16.5515C20.1787 16.5515 20.6524 16.6098 21.0411 16.7265C21.1625 16.7557 21.2719 16.8067 21.369 16.8796C21.4662 16.9525 21.5391 17.0546 21.5877 17.1858C21.6362 17.3171 21.6727 17.4483 21.697 17.5796C21.7213 17.7108 21.7334 17.9004 21.7334 18.1483V18.8264C21.7091 19.0597 21.697 19.3514 21.697 19.7014V20.7513C21.697 20.8388 21.6909 21.0138 21.6788 21.2763C21.6666 21.5388 21.6605 21.743 21.6605 21.8888C21.6605 22.0346 21.6727 22.2023 21.697 22.3919C21.7213 22.5815 21.7638 22.7419 21.8245 22.8731C21.8852 23.0044 21.9642 23.0992 22.0614 23.1575C22.11 23.1867 22.1646 23.2085 22.2253 23.2231C22.2861 23.2377 22.3772 23.194 22.4986 23.0919C22.6201 22.9898 22.7537 22.844 22.8995 22.6544C23.0452 22.4648 23.2274 22.1804 23.4461 21.8013C23.6647 21.4221 23.8955 20.9847 24.1384 20.4888C24.5514 19.6139 24.9279 18.666 25.268 17.6452C25.2923 17.5869 25.3227 17.5212 25.3591 17.4483C25.3956 17.3754 25.4381 17.3244 25.4867 17.2952H25.5231L25.5595 17.2515L25.7053 17.2077H25.9239L28.9119 17.164C29.1792 17.1348 29.4039 17.1494 29.5861 17.2077C29.7683 17.266 29.8715 17.339 29.8958 17.4265L29.9687 17.5577Z" fill="white"/>
</svg>
