<svg width="40" height="47" viewBox="0 0 40 47" fill="none" xmlns="http://www.w3.org/2000/svg">
<rect x="0.5" y="1.21973" width="39" height="44.6968" stroke="#898989"/>
<g clip-path="url(#clip0_30600_29)">
<path d="M29.5834 18.3387C29.4701 17.8772 29.2495 17.4594 28.945 17.1296C28.6319 16.7898 28.2482 16.5466 27.83 16.4232C26.265 15.952 19.995 15.952 19.995 15.952C17.3811 15.918 14.7679 16.0674 12.17 16.3994C11.7519 16.532 11.3688 16.7805 11.055 17.123C10.7467 17.4619 10.5234 17.8798 10.4067 18.3377C10.1264 20.0625 9.99027 21.8139 10 23.5681C9.99003 25.3208 10.1259 27.0715 10.4067 28.7985C10.5209 29.2545 10.7434 29.6705 11.0525 30.0066C11.3617 30.3427 11.7467 30.5854 12.17 30.714C13.7559 31.1842 19.995 31.1842 19.995 31.1842C22.6122 31.2183 25.2288 31.0688 27.83 30.7368C28.2482 30.6134 28.6319 30.3703 28.945 30.0304C29.2534 29.6943 29.4725 29.2764 29.5825 28.8213C29.8701 27.0972 30.0099 25.3451 30 23.59C30.0217 21.8275 29.882 20.0671 29.5834 18.3377V18.3387ZM18.0017 26.8278V20.3094L23.2184 23.5691L18.0017 26.8278Z" fill="white"/>
</g>
<defs>
<clipPath id="clip0_30600_29">
<rect width="20" height="22.8484" fill="white" transform="translate(10 12.144)"/>
</clipPath>
</defs>
</svg>
